<svg xmlns="http://www.w3.org/2000/svg" viewBox="0 0 512 512">
    <rect width="512" height="512" fill="#18181b" />
    <circle cx="256" cy="256" r="196" fill="#27272a" />
    <path fill="#fafafa" d="M146 177c0-17.7 14.3-32 32-32h114c17.7 0 32 14.3 32 32v96h20.7c12.2 0 23.8 5.6 31.4 15.2l27.5 34.8c4.5 5.7 6.9 12.8 6.9 20.1V354c0 17.7-14.3 32-32 32h-6.8c-8.9 0-16-7.2-16-16 0-28.7-23.3-52-52-52s-52 23.3-52 52c0 8.8-7.1 16-16 16h-61.6c-8.9 0-16-7.2-16-16 0-28.7-23.3-52-52-52s-52 23.3-52 52c0 8.8-7.1 16-16 16H80c-17.7 0-32-14.3-32-32V209c0-17.7 14.3-32 32-32h66zm-50 32v72h180v-72H96zm228 64v-32h31.6l20 32H324zM132 350a20 20 0 1 0 0 40 20 20 0 0 0 0-40zm144 0a20 20 0 1 0 0 40 20 20 0 0 0 0-40z"/>
</svg>
