<svg xmlns="http://www.w3.org/2000/svg" viewBox="0 0 512 512">
    <defs>
        <linearGradient id="bg" x1="64" x2="448" y1="64" y2="448" gradientUnits="userSpaceOnUse">
            <stop offset="0" stop-color="#52525b" />
            <stop offset="1" stop-color="#18181b" />
        </linearGradient>
    </defs>
    <rect width="512" height="512" rx="112" fill="url(#bg)" />
    <path fill="#fafafa" d="M114 153c0-17.7 14.3-32 32-32h136c17.7 0 32 14.3 32 32v114h25.1c12.2 0 23.8 5.6 31.4 15.2l31.7 40c4.5 5.7 6.9 12.8 6.9 20.1V359c0 17.7-14.3 32-32 32h-10.8c-6.6 0-12-5.4-12-12 0-29.8-24.2-54-54-54s-54 24.2-54 54c0 6.6-5.4 12-12 12H197.8c-6.6 0-12-5.4-12-12 0-29.8-24.2-54-54-54s-54 24.2-54 54c0 6.6-5.4 12-12 12H56c-17.7 0-32-14.3-32-32V185c0-17.7 14.3-32 32-32h58zM80 197v82h186V197H80zm234 70v-45h43.4l28.5 45H314zm-182 90a22 22 0 1 0 0 44 22 22 0 0 0 0-44zm148 0a22 22 0 1 0 0 44 22 22 0 0 0 0-44z"/>
</svg>
